<?xml version="1.0" encoding="UTF-8"?>
<svg id="Layer_2" data-name="Layer 2" xmlns="http://www.w3.org/2000/svg" viewBox="0 0 315.13 108">
  <defs>
    <style>
      .cls-1 {
        fill: #fff;
      }

      .cls-2 {
        fill: #c10a31;
      }
    </style>
  </defs>
  <g id="Layer_1-2" data-name="Layer 1">
    <g>
      <path class="cls-2" d="M76.8,34.2v-8.03c0-.43.34-.79.75-.79h4.5c-.04-.18-.06-.38-.06-.57v-1.48c0-1.18.91-2.14,2.04-2.14h5.38c1.23,0-.86,0,2.14,0l-13.49,13.61c-.5.44-1.26.07-1.26-.61ZM38.63,67.31l-16.01,14.81c-.56.49-.23,1.44.5,1.44h16.73c.43,0,.78-.36.78-.81v-14.34c0-1.07-1.15-1.71-1.99-1.1ZM49.83,39.94v15.08c0,.79.97,1.1,1.4.45l18.7-28.86c.34-.52-.02-1.23-.62-1.23H24.81c.04-.18.06-.38.06-.57v-1.48c0-1.18-.91-2.14-2.04-2.14h-5.94c-1.13,0-2.04.96-2.04,2.14v1.48c0,.2.02.39.06.57h-4.27c-1.55,0-2.8,1.31-2.8,2.93l-4.49,44.57c0,.38-1.8,17.36-3.33,23.81-.17.71.66,1.19,1.15.67l46.47-58.34c.8-.86,2.19-.27,2.19.92ZM70.88,61.42v-16.22c0-.8-.99-1.1-1.41-.43l-23.22,37.75c-.27.44.03,1.03.54,1.03h48.43c1.55,0,2.8-1.31,2.8-2.93l7.07-52.31c0-.4,1.47-11.56,2.81-17,.18-.74-.73-1.22-1.19-.63l-33.52,51.52c-.72,1.05-2.31.51-2.31-.78Z"/>
      <g>
        <path class="cls-2" d="M150.69,18.81h9.47c5.1,0,7.65,1.73,7.65,5.19,0,1.31-.14,2.32-.42,3.03-.28.71-.86,1.37-1.73,2,1.02.44,1.72.97,2.11,1.61.39.64.58,1.69.58,3.17,0,3.96-2.69,5.94-8.06,5.94h-9.59v-20.93ZM159.53,23.59h-1.59v3.34h1.62c.63,0,1.06-.13,1.31-.41.25-.27.38-.7.38-1.3s-.14-1.02-.41-1.27c-.27-.25-.71-.37-1.31-.37ZM159.62,31.46h-1.69v3.44h1.69c.73,0,1.22-.12,1.47-.36.25-.24.37-.69.37-1.34s-.14-1.11-.41-1.36c-.27-.25-.75-.37-1.44-.37Z"/>
        <path class="cls-2" d="M179.24,18.4c3.81,0,6.2.97,7.15,2.91.39.75.59,1.77.59,3.06s-.27,2.27-.81,2.94-1.78,1.25-3.72,1.75l1.84,1.59c.23-.44.4-.85.5-1.25l5.69.22c-.52,2.02-1.12,3.65-1.81,4.87l2.03,1.75-1.44,3.91-4.22-1.72c-1.85,1.15-4.33,1.72-7.44,1.72s-5.33-.46-6.69-1.39c-1.35-.93-2.03-2.58-2.03-4.95,0-1.62.28-2.88.84-3.78.56-.9,1.41-1.58,2.53-2.06-.56-.85-.84-2.13-.84-3.84,0-3.81,2.6-5.72,7.81-5.72ZM178.34,34.49c.39,0,.76-.04,1.09-.12l-3.34-2.81c-.08.27-.12.61-.12,1.03,0,1.27.79,1.91,2.38,1.91ZM178.21,24.18c0,.69.26,1.29.78,1.81.75-.52,1.12-1.12,1.12-1.81,0-.94-.32-1.41-.95-1.41s-.95.47-.95,1.41Z"/>
        <path class="cls-2" d="M191.59,39.74v-20.93h10.78l1.62,8,1.34-8h11.09v20.93h-7.25v-10.78h-.34l-1.81,10.56h-6.06l-1.78-10.56h-.34v10.78h-7.25Z"/>
      </g>
      <g>
        <path class="cls-1" d="M150.57,64.36v-18.06h2.17v18.06h-2.17Z"/>
        <path class="cls-1" d="M159.25,64.36h-2.12v-13.05h2.09v.91c1.52-.78,2.98-1.17,4.37-1.17,1.88,0,3.15.47,3.79,1.41.65.94.97,2.61.97,5.01v6.89h-2.09v-6.84c0-1.81-.19-3.05-.58-3.72s-1.21-1-2.47-1c-.6,0-1.24.08-1.9.25-.67.17-1.18.33-1.54.48l-.54.23v10.59Z"/>
        <path class="cls-1" d="M183.12,45.62v18.74h-2.09v-.89c-1.45.77-2.88,1.15-4.29,1.15-.75,0-1.41-.09-1.97-.26s-1.09-.49-1.58-.94c-1.02-.94-1.52-2.67-1.52-5.21s.46-4.36,1.37-5.48c.91-1.12,2.42-1.68,4.53-1.68,1.09,0,2.25.11,3.47.34v-5.77h2.09ZM175.78,62.69c.34.12.78.18,1.31.18s1.14-.08,1.81-.25c.67-.17,1.19-.33,1.57-.48l.56-.23v-8.85c-1.2-.21-2.32-.31-3.36-.31-1.43,0-2.43.42-2.99,1.27-.56.84-.85,2.15-.85,3.93,0,2.02.33,3.38.99,4.07.3.33.62.56.96.68Z"/>
        <path class="cls-1" d="M196.01,51.31h2.12v13.05h-2.12v-.91c-1.41.78-2.8,1.17-4.17,1.17-1.92,0-3.19-.46-3.82-1.38-.63-.92-.95-2.63-.95-5.11v-6.81h2.12v6.78c0,1.9.18,3.17.54,3.81.36.64,1.17.97,2.43.97.62,0,1.25-.08,1.89-.25.64-.17,1.13-.33,1.47-.48l.51-.23v-10.59Z"/>
        <path class="cls-1" d="M206.61,52.8c-2.05,0-3.07.66-3.07,1.98,0,.61.24,1.04.71,1.29.47.25,1.54.51,3.22.78,1.67.27,2.86.65,3.55,1.14.7.49,1.04,1.4,1.04,2.74s-.47,2.32-1.4,2.95-2.29.94-4.08.94c-1.17,0-2.54-.12-4.12-.37l-.85-.13.11-1.7c2.14.3,3.76.44,4.85.44s1.92-.16,2.5-.48c.57-.32.86-.86.86-1.62s-.24-1.27-.73-1.54c-.49-.27-1.56-.53-3.22-.77-1.66-.24-2.83-.6-3.53-1.07s-1.04-1.34-1.04-2.61.48-2.21,1.45-2.82c.97-.61,2.18-.91,3.62-.91,1.15,0,2.59.12,4.32.37l.79.13-.06,1.67c-2.09-.28-3.73-.42-4.94-.42Z"/>
        <path class="cls-1" d="M222.61,53.01h-4.48v6.24c0,1.5.12,2.48.35,2.95.24.47.79.7,1.68.7l2.51-.16.14,1.62c-1.26.19-2.22.29-2.88.29-1.47,0-2.48-.33-3.05-.99-.56-.66-.85-1.92-.85-3.78v-6.86h-2v-1.7h2v-3.99h2.09v3.99h4.48v1.7Z"/>
        <path class="cls-1" d="M225.2,64.36v-13.05h2.09v1.77c1.64-1.04,3.36-1.73,5.16-2.06v1.98c-.79.14-1.61.36-2.47.65-.86.3-1.51.56-1.96.78l-.71.34v9.58h-2.12Z"/>
        <path class="cls-1" d="M234.96,48.36v-2.27h2.12v2.27h-2.12ZM234.96,64.36v-13.05h2.12v13.05h-2.12Z"/>
        <path class="cls-1" d="M251.1,55.25v6.68c.06.64.6,1.03,1.64,1.15l-.08,1.54c-1.49,0-2.6-.35-3.36-1.04-1.69.7-3.38,1.04-5.08,1.04-1.3,0-2.28-.34-2.96-1.02-.68-.68-1.01-1.65-1.01-2.92s.35-2.2,1.04-2.81c.7-.6,1.79-.97,3.27-1.11l4.43-.39v-1.12c0-.89-.21-1.52-.62-1.9-.41-.38-.98-.57-1.69-.57-1.5,0-3.07.09-4.68.26l-.87.08-.09-1.49c2.07-.38,3.9-.57,5.5-.57s2.76.34,3.48,1.02c.72.68,1.09,1.74,1.09,3.18ZM242.41,60.58c0,1.6.71,2.4,2.14,2.4,1.28,0,2.54-.2,3.78-.6l.65-.21v-4.31l-4.17.37c-.85.07-1.46.3-1.83.68-.38.38-.56.94-.56,1.67Z"/>
        <path class="cls-1" d="M255.44,64.36v-18.74h2.12v18.74h-2.12Z"/>
      </g>
      <g>
        <path class="cls-1" d="M157.59,83.26h-4.97v6.08h-2.17v-18.06h7.14c2.12,0,3.69.48,4.71,1.44,1.01.96,1.52,2.42,1.52,4.38,0,4.11-2.08,6.16-6.23,6.16ZM152.63,81.48h4.94c2.69,0,4.03-1.46,4.03-4.38,0-1.39-.32-2.41-.96-3.07-.64-.65-1.66-.98-3.07-.98h-4.94v8.43Z"/>
        <path class="cls-1" d="M166.08,82.79c0-2.38.46-4.11,1.38-5.17.92-1.06,2.48-1.59,4.67-1.59s3.74.53,4.65,1.59c.91,1.06,1.37,2.78,1.37,5.17s-.43,4.11-1.3,5.19c-.87,1.08-2.44,1.62-4.74,1.62s-3.87-.54-4.74-1.62c-.87-1.08-1.3-2.81-1.3-5.19ZM168.25,82.75c0,1.9.25,3.24.75,4.01.5.77,1.54,1.15,3.13,1.15s2.63-.38,3.12-1.14c.49-.76.73-2.09.73-4.01s-.27-3.23-.82-3.95c-.55-.72-1.56-1.08-3.03-1.08s-2.49.36-3.05,1.08c-.55.72-.83,2.04-.83,3.94Z"/>
        <path class="cls-1" d="M180.3,76.29h2.12l2.85,11.35h.45l3.36-11.09h2.2l3.36,11.09h.48l2.82-11.35h2.12l-3.36,13.05h-3.53l-2.99-10.2-2.99,10.2h-3.53l-3.36-13.05Z"/>
        <path class="cls-1" d="M212.4,87.72l.82-.08.06,1.54c-2.14.28-3.98.42-5.5.42-2.03,0-3.47-.54-4.32-1.63-.85-1.09-1.27-2.78-1.27-5.08,0-4.58,1.97-6.86,5.9-6.86,1.9,0,3.32.49,4.26,1.47.94.98,1.41,2.53,1.41,4.63l-.11,1.49h-9.31c0,1.44.28,2.51.85,3.21.56.7,1.55,1.04,2.95,1.04s2.83-.05,4.27-.16ZM211.64,82.05c0-1.6-.28-2.73-.83-3.39-.56-.66-1.46-.99-2.71-.99s-2.19.35-2.82,1.04c-.63.7-.95,1.81-.97,3.34h7.33Z"/>
        <path class="cls-1" d="M217.05,89.34v-13.05h2.09v1.77c1.64-1.04,3.36-1.73,5.16-2.06v1.98c-.79.14-1.61.36-2.47.65-.86.3-1.51.56-1.96.78l-.71.34v9.58h-2.12Z"/>
        <path class="cls-1" d="M238.77,72.77c-2.82,0-4.23.98-4.23,2.95,0,1.1.32,1.85.97,2.26.65.41,1.97.82,3.95,1.23,1.98.41,3.39.94,4.22,1.59.83.65,1.24,1.73,1.24,3.22,0,3.71-2.08,5.56-6.23,5.56-1.37,0-3.09-.15-5.16-.44l-1.02-.13.23-1.67c2.56.31,4.5.47,5.84.47,2.78,0,4.17-1.21,4.17-3.63,0-.97-.31-1.67-.92-2.1-.61-.43-1.75-.79-3.43-1.08-2.2-.43-3.76-1-4.68-1.68-.92-.69-1.38-1.84-1.38-3.46,0-3.24,2.1-4.85,6.29-4.85,1.37,0,3.02.13,4.94.39l.96.13-.2,1.7c-2.61-.3-4.47-.44-5.56-.44Z"/>
        <path class="cls-1" d="M257.89,87.72l.82-.08.06,1.54c-2.14.28-3.98.42-5.5.42-2.03,0-3.47-.54-4.32-1.63-.85-1.09-1.27-2.78-1.27-5.08,0-4.58,1.97-6.86,5.9-6.86,1.9,0,3.32.49,4.26,1.47.94.98,1.41,2.53,1.41,4.63l-.11,1.49h-9.31c0,1.44.28,2.51.85,3.21.56.7,1.55,1.04,2.95,1.04s2.83-.05,4.27-.16ZM257.13,82.05c0-1.6-.28-2.73-.83-3.39-.56-.66-1.46-.99-2.71-.99s-2.19.35-2.82,1.04c-.63.7-.95,1.81-.97,3.34h7.33Z"/>
        <path class="cls-1" d="M262.55,89.34v-13.05h2.09v1.77c1.64-1.04,3.36-1.73,5.16-2.06v1.98c-.79.14-1.61.36-2.47.65-.86.3-1.51.56-1.96.78l-.71.34v9.58h-2.12Z"/>
        <path class="cls-1" d="M270.98,76.29h2.26l3.3,11.35h1.04l3.41-11.35h2.17l-3.98,13.05h-4.23l-3.98-13.05Z"/>
        <path class="cls-1" d="M285.88,73.34v-2.27h2.12v2.27h-2.12ZM285.88,89.34v-13.05h2.12v13.05h-2.12Z"/>
        <path class="cls-1" d="M297.33,76.03c.62,0,1.67.1,3.16.31l.68.08-.08,1.59c-1.5-.16-2.61-.23-3.33-.23-1.6,0-2.68.35-3.26,1.06-.57.7-.86,2.01-.86,3.91s.27,3.23.8,3.98c.54.75,1.65,1.12,3.34,1.12l3.33-.23.08,1.62c-1.75.24-3.06.37-3.92.37-2.2,0-3.72-.52-4.56-1.57-.84-1.04-1.26-2.81-1.26-5.28s.45-4.22,1.35-5.22c.9-1,2.41-1.5,4.51-1.5Z"/>
        <path class="cls-1" d="M313.77,87.72l.82-.08.06,1.54c-2.14.28-3.98.42-5.5.42-2.03,0-3.47-.54-4.32-1.63-.85-1.09-1.27-2.78-1.27-5.08,0-4.58,1.97-6.86,5.9-6.86,1.9,0,3.32.49,4.26,1.47.94.98,1.41,2.53,1.41,4.63l-.11,1.49h-9.31c0,1.44.28,2.51.85,3.21.56.7,1.55,1.04,2.95,1.04s2.83-.05,4.27-.16ZM313.01,82.05c0-1.6-.28-2.73-.83-3.39-.56-.66-1.46-.99-2.71-.99s-2.19.35-2.82,1.04c-.63.7-.95,1.81-.97,3.34h7.33Z"/>
      </g>
      <rect class="cls-2" x="126.55" width="2" height="108"/>
    </g>
  </g>
</svg>